<svg width="20" height="20" viewBox="0 0 20 20" fill="none" xmlns="http://www.w3.org/2000/svg">
<g id="streamline:bill-2">
<g id="Group">
<path id="Vector" d="M16.7692 4.46156H3.23077C2.90435 4.46156 2.5913 4.59123 2.36048 4.82204C2.12967 5.05285 2 5.3659 2 5.69232V14.3077C2 14.6341 2.12967 14.9472 2.36048 15.178C2.5913 15.4088 2.90435 15.5385 3.23077 15.5385H16.7692C17.0956 15.5385 17.4087 15.4088 17.6395 15.178C17.8703 14.9472 18 14.6341 18 14.3077V5.69232C18 5.3659 17.8703 5.05285 17.6395 4.82204C17.4087 4.59123 17.0956 4.46156 16.7692 4.46156Z" stroke="#4683C4" stroke-linecap="round" stroke-linejoin="round"/>
<path id="Vector_2" d="M9.99987 12.4615C10.6527 12.4615 11.2788 12.2022 11.7404 11.7406C12.2021 11.2789 12.4614 10.6528 12.4614 10C12.4614 9.34717 12.2021 8.72107 11.7404 8.25944C11.2788 7.79781 10.6527 7.53847 9.99987 7.53847C9.34703 7.53847 8.72093 7.79781 8.2593 8.25944C7.79768 8.72107 7.53834 9.34717 7.53834 10C7.53834 10.6528 7.79768 11.2789 8.2593 11.7406C8.72093 12.2022 9.34703 12.4615 9.99987 12.4615ZM4.79988 10.3077C4.71827 10.3077 4.64001 10.2753 4.58231 10.2176C4.5246 10.1599 4.49219 10.0816 4.49219 10C4.49219 9.9184 4.5246 9.84014 4.58231 9.78244C4.64001 9.72473 4.71827 9.69232 4.79988 9.69232M4.79988 10.3077C4.88148 10.3077 4.95975 10.2753 5.01745 10.2176C5.07515 10.1599 5.10757 10.0816 5.10757 10C5.10757 9.9184 5.07515 9.84014 5.01745 9.78244C4.95975 9.72473 4.88148 9.69232 4.79988 9.69232M15.1999 10.3077C15.1183 10.3077 15.04 10.2753 14.9823 10.2176C14.9246 10.1599 14.8922 10.0816 14.8922 10C14.8922 9.9184 14.9246 9.84014 14.9823 9.78244C15.04 9.72473 15.1183 9.69232 15.1999 9.69232M15.1999 10.3077C15.2815 10.3077 15.3597 10.2753 15.4174 10.2176C15.4751 10.1599 15.5076 10.0816 15.5076 10C15.5076 9.9184 15.4751 9.84014 15.4174 9.78244C15.3597 9.72473 15.2815 9.69232 15.1999 9.69232" stroke="#4683C4" stroke-linecap="round" stroke-linejoin="round"/>
</g>
</g>
</svg>
