<svg width="14" height="14" viewBox="0 0 14 14" fill="none" xmlns="http://www.w3.org/2000/svg">
<g id="fluent:delete-16-regular">
<path id="Vector" d="M6.125 2.625H7.875C7.875 2.39294 7.78281 2.17038 7.61872 2.00628C7.45462 1.84219 7.23206 1.75 7 1.75C6.76794 1.75 6.54538 1.84219 6.38128 2.00628C6.21719 2.17038 6.125 2.39294 6.125 2.625ZM5.25 2.625C5.25 2.16087 5.43437 1.71575 5.76256 1.38756C6.09075 1.05937 6.53587 0.875 7 0.875C7.46413 0.875 7.90925 1.05937 8.23744 1.38756C8.56563 1.71575 8.75 2.16087 8.75 2.625H12.25C12.366 2.625 12.4773 2.67109 12.5594 2.75314C12.6414 2.83519 12.6875 2.94647 12.6875 3.0625C12.6875 3.17853 12.6414 3.28981 12.5594 3.37186C12.4773 3.45391 12.366 3.5 12.25 3.5H11.7565L10.7021 11.2333C10.6306 11.7573 10.3716 12.2377 9.97316 12.5855C9.57468 12.9333 9.06367 13.125 8.53475 13.125H5.46525C4.93633 13.125 4.42532 12.9333 4.02684 12.5855C3.62835 12.2377 3.36939 11.7573 3.29788 11.2333L2.2435 3.5H1.75C1.63397 3.5 1.52269 3.45391 1.44064 3.37186C1.35859 3.28981 1.3125 3.17853 1.3125 3.0625C1.3125 2.94647 1.35859 2.83519 1.44064 2.75314C1.52269 2.67109 1.63397 2.625 1.75 2.625H5.25ZM6.125 5.6875C6.125 5.57147 6.07891 5.46019 5.99686 5.37814C5.91481 5.29609 5.80353 5.25 5.6875 5.25C5.57147 5.25 5.46019 5.29609 5.37814 5.37814C5.29609 5.46019 5.25 5.57147 5.25 5.6875V10.0625C5.25 10.1785 5.29609 10.2898 5.37814 10.3719C5.46019 10.4539 5.57147 10.5 5.6875 10.5C5.80353 10.5 5.91481 10.4539 5.99686 10.3719C6.07891 10.2898 6.125 10.1785 6.125 10.0625V5.6875ZM8.3125 5.25C8.42853 5.25 8.53981 5.29609 8.62186 5.37814C8.70391 5.46019 8.75 5.57147 8.75 5.6875V10.0625C8.75 10.1785 8.70391 10.2898 8.62186 10.3719C8.53981 10.4539 8.42853 10.5 8.3125 10.5C8.19647 10.5 8.08519 10.4539 8.00314 10.3719C7.92109 10.2898 7.875 10.1785 7.875 10.0625V5.6875C7.875 5.57147 7.92109 5.46019 8.00314 5.37814C8.08519 5.29609 8.19647 5.25 8.3125 5.25ZM4.165 11.1151C4.20794 11.4295 4.36331 11.7177 4.60236 11.9263C4.84141 12.135 5.14795 12.25 5.46525 12.25H8.53475C8.8522 12.2502 9.15895 12.1353 9.39818 11.9266C9.63741 11.718 9.79291 11.4297 9.83588 11.1151L10.8736 3.5H3.12637L4.165 11.1151Z" fill="#FC0F00"/>
</g>
</svg>
