<svg width="32" height="32" viewBox="0 0 32 32" fill="none" xmlns="http://www.w3.org/2000/svg">
<g id="fluent:document-text-16-filled">
<path id="Vector" d="M16 9V2H9C8.20435 2 7.44129 2.31607 6.87868 2.87868C6.31607 3.44129 6 4.20435 6 5V27C6 27.7956 6.31607 28.5587 6.87868 29.1213C7.44129 29.6839 8.20435 30 9 30H23C23.7956 30 24.5587 29.6839 25.1213 29.1213C25.6839 28.5587 26 27.7956 26 27V12H19C18.2044 12 17.4413 11.6839 16.8787 11.1213C16.3161 10.5587 16 9.79565 16 9ZM18 9V2.5L25.5 10H19C18.7348 10 18.4804 9.89464 18.2929 9.70711C18.1054 9.51957 18 9.26522 18 9ZM11 16H21C21.2652 16 21.5196 16.1054 21.7071 16.2929C21.8946 16.4804 22 16.7348 22 17C22 17.2652 21.8946 17.5196 21.7071 17.7071C21.5196 17.8946 21.2652 18 21 18H11C10.7348 18 10.4804 17.8946 10.2929 17.7071C10.1054 17.5196 10 17.2652 10 17C10 16.7348 10.1054 16.4804 10.2929 16.2929C10.4804 16.1054 10.7348 16 11 16ZM10 21C10 20.7348 10.1054 20.4804 10.2929 20.2929C10.4804 20.1054 10.7348 20 11 20H21C21.2652 20 21.5196 20.1054 21.7071 20.2929C21.8946 20.4804 22 20.7348 22 21C22 21.2652 21.8946 21.5196 21.7071 21.7071C21.5196 21.8946 21.2652 22 21 22H11C10.7348 22 10.4804 21.8946 10.2929 21.7071C10.1054 21.5196 10 21.2652 10 21ZM11 24H21C21.2652 24 21.5196 24.1054 21.7071 24.2929C21.8946 24.4804 22 24.7348 22 25C22 25.2652 21.8946 25.5196 21.7071 25.7071C21.5196 25.8946 21.2652 26 21 26H11C10.7348 26 10.4804 25.8946 10.2929 25.7071C10.1054 25.5196 10 25.2652 10 25C10 24.7348 10.1054 24.4804 10.2929 24.2929C10.4804 24.1054 10.7348 24 11 24Z" fill="white"/>
</g>
</svg>
