<svg width="36" height="36" viewBox="0 0 36 36" fill="none" xmlns="http://www.w3.org/2000/svg">
<g id="bi:emoji-angry" clip-path="url(#clip0_1119_5939)">
<g id="Group">
<path id="Vector" d="M18 33.75C13.8228 33.75 9.81677 32.0906 6.86307 29.1369C3.90937 26.1832 2.25 22.1772 2.25 18C2.25 13.8228 3.90937 9.81677 6.86307 6.86307C9.81677 3.90937 13.8228 2.25 18 2.25C22.1772 2.25 26.1832 3.90937 29.1369 6.86307C32.0906 9.81677 33.75 13.8228 33.75 18C33.75 22.1772 32.0906 26.1832 29.1369 29.1369C26.1832 32.0906 22.1772 33.75 18 33.75ZM18 36C22.7739 36 27.3523 34.1036 30.7279 30.7279C34.1036 27.3523 36 22.7739 36 18C36 13.2261 34.1036 8.64773 30.7279 5.27208C27.3523 1.89642 22.7739 0 18 0C13.2261 0 8.64773 1.89642 5.27208 5.27208C1.89642 8.64773 0 13.2261 0 18C0 22.7739 1.89642 27.3523 5.27208 30.7279C8.64773 34.1036 13.2261 36 18 36Z" fill="#ABB4CF"/>
<path id="Vector_2" d="M9.64127 27.9742C9.89966 28.1234 10.2067 28.1638 10.4949 28.0866C10.7831 28.0094 11.0288 27.8209 11.178 27.5625C11.869 26.3647 12.8634 25.3702 14.061 24.6789C15.2586 23.9877 16.6172 23.6242 18 23.625C20.9138 23.625 23.4585 25.2067 24.822 27.5625C24.9723 27.8188 25.2178 28.0052 25.505 28.0812C25.7922 28.1571 26.0978 28.1163 26.3551 27.9678C26.6123 27.8193 26.8004 27.575 26.8782 27.2883C26.9561 27.0016 26.9174 26.6957 26.7705 26.4375C25.882 24.8977 24.6037 23.6191 23.064 22.7304C21.5243 21.8417 19.7778 21.3742 18 21.375C16.2224 21.3746 14.476 21.8423 12.9364 22.731C11.3968 23.6197 10.1183 24.898 9.22952 26.4375C9.08035 26.6959 9.03992 27.0029 9.11714 27.2911C9.19435 27.5793 9.38289 27.8251 9.64127 27.9742ZM25.371 9.11925C25.5032 9.0517 25.6475 9.011 25.7955 8.99948C25.9436 8.98797 26.0924 9.00586 26.2335 9.05214C26.3746 9.09842 26.5051 9.17216 26.6175 9.26912C26.7299 9.36608 26.8221 9.48434 26.8886 9.61708C26.9551 9.74981 26.9947 9.89441 27.0051 10.0425C27.0154 10.1906 26.9964 10.3393 26.949 10.48C26.9016 10.6207 26.8269 10.7507 26.7291 10.8624C26.6312 10.974 26.5123 11.0653 26.379 11.1307L24.1088 12.2647C24.5048 12.8722 24.75 13.7047 24.75 14.625C24.75 16.488 23.742 18 22.5 18C21.258 18 20.25 16.488 20.25 14.625C20.25 14.0692 20.34 13.545 20.4975 13.0815C20.3929 12.9503 20.3188 12.7974 20.2806 12.6339C20.2425 12.4704 20.2413 12.3005 20.2771 12.1365C20.3128 11.9725 20.3847 11.8186 20.4874 11.6859C20.5902 11.5531 20.7212 11.445 20.871 11.3692L25.371 9.11925ZM10.629 9.11925C10.3626 8.98831 10.0552 8.96798 9.77388 9.0627C9.49254 9.15741 9.26003 9.35949 9.12703 9.62489C8.99404 9.89029 8.97133 10.1975 9.06386 10.4796C9.15639 10.7616 9.35666 10.9957 9.62102 11.1307L11.8913 12.2647C11.457 12.9743 11.2345 13.7932 11.25 14.625C11.25 16.488 12.258 18 13.5 18C14.742 18 15.75 16.488 15.75 14.625C15.75 14.0692 15.66 13.545 15.5025 13.0815C15.6072 12.9503 15.6813 12.7974 15.7194 12.6339C15.7575 12.4704 15.7588 12.3005 15.723 12.1365C15.6872 11.9725 15.6153 11.8186 15.5126 11.6859C15.4099 11.5531 15.2788 11.445 15.129 11.3692L10.629 9.11925Z" fill="#ABB4CF"/>
</g>
</g>
<defs>
<clipPath id="clip0_1119_5939">
<rect width="36" height="36" fill="white"/>
</clipPath>
</defs>
</svg>
