<svg width="36" height="36" viewBox="0 0 36 36" fill="none" xmlns="http://www.w3.org/2000/svg">
<g id="bi:emoji-neutral" clip-path="url(#clip0_1119_5943)">
<g id="Group">
<path id="Vector" d="M18 33.75C13.8228 33.75 9.81677 32.0906 6.86307 29.1369C3.90937 26.1832 2.25 22.1772 2.25 18C2.25 13.8228 3.90937 9.81677 6.86307 6.86307C9.81677 3.90937 13.8228 2.25 18 2.25C22.1772 2.25 26.1832 3.90937 29.1369 6.86307C32.0906 9.81677 33.75 13.8228 33.75 18C33.75 22.1772 32.0906 26.1832 29.1369 29.1369C26.1832 32.0906 22.1772 33.75 18 33.75ZM18 36C22.7739 36 27.3523 34.1036 30.7279 30.7279C34.1036 27.3523 36 22.7739 36 18C36 13.2261 34.1036 8.64773 30.7279 5.27208C27.3523 1.89642 22.7739 0 18 0C13.2261 0 8.64773 1.89642 5.27208 5.27208C1.89642 8.64773 0 13.2261 0 18C0 22.7739 1.89642 27.3523 5.27208 30.7279C8.64773 34.1036 13.2261 36 18 36Z" fill="#ABB4CF"/>
<path id="Vector_2" d="M9 23.625C9 23.9234 9.11853 24.2095 9.32951 24.4205C9.54048 24.6315 9.82663 24.75 10.125 24.75H25.875C26.1734 24.75 26.4595 24.6315 26.6705 24.4205C26.8815 24.2095 27 23.9234 27 23.625C27 23.3266 26.8815 23.0405 26.6705 22.8295C26.4595 22.6185 26.1734 22.5 25.875 22.5H10.125C9.82663 22.5 9.54048 22.6185 9.32951 22.8295C9.11853 23.0405 9 23.3266 9 23.625ZM15.75 14.625C15.75 12.762 14.742 11.25 13.5 11.25C12.258 11.25 11.25 12.762 11.25 14.625C11.25 16.488 12.258 18 13.5 18C14.742 18 15.75 16.488 15.75 14.625ZM24.75 14.625C24.75 12.762 23.742 11.25 22.5 11.25C21.258 11.25 20.25 12.762 20.25 14.625C20.25 16.488 21.258 18 22.5 18C23.742 18 24.75 16.488 24.75 14.625Z" fill="#ABB4CF"/>
</g>
</g>
<defs>
<clipPath id="clip0_1119_5943">
<rect width="36" height="36" fill="white"/>
</clipPath>
</defs>
</svg>
