<svg width="36" height="36" viewBox="0 0 36 36" fill="none" xmlns="http://www.w3.org/2000/svg">
<g id="noto:upside-down-face" clip-path="url(#clip0_1119_5952)">
<g id="Group 98">
<path id="Vector" d="M18 36C9.34145 36 9.96748e-05 30.3649 0.000100756 18C0.000101837 5.63506 9.34145 1.48413e-06 18.0001 2.24109e-06C22.8104 2.66162e-06 27.2483 1.64222 30.5379 4.63685C34.1069 7.92129 36 12.5581 36 18C36 23.4419 34.1069 28.0465 30.5379 31.3309C27.2483 34.3256 22.7793 36 18 36Z" fill="url(#paint0_radial_1119_5952)"/>
<path id="Vector_2" d="M11.9294 10.9288C10.629 10.9288 9.44661 12.0687 9.4466 13.9621C9.4466 15.8522 10.629 16.9954 11.9294 16.9954C13.2297 16.9954 14.4121 15.8555 14.4121 13.9621C14.4121 12.0687 13.2328 10.9288 11.9294 10.9288Z" fill="#422B0D"/>
<path id="Vector_3" d="M11.8086 12.1943C11.489 11.9624 11.0079 12.0365 10.6976 12.5002C10.3873 12.9671 10.4897 13.4565 10.8093 13.6884C11.129 13.9202 11.61 13.8462 11.9204 13.3825C12.2307 12.9188 12.1314 12.4261 11.8086 12.1943Z" fill="#896024"/>
<path id="Vector_4" d="M23.8344 10.9288C22.534 10.9288 21.3516 12.0687 21.3516 13.9621C21.3516 15.8522 22.534 16.9954 23.8344 16.9954C25.1347 16.9954 26.3171 15.8555 26.3171 13.9621C26.3171 12.0687 25.1347 10.9288 23.8344 10.9288Z" fill="#422B0D"/>
<path id="Vector_5" d="M23.7136 12.1943C23.394 11.9624 22.9129 12.0365 22.6026 12.5002C22.2923 12.9639 22.3947 13.4565 22.7143 13.6884C23.034 13.9202 23.515 13.8462 23.8254 13.3825C24.1357 12.9188 24.0333 12.4261 23.7136 12.1943Z" fill="#896024"/>
<path id="Vector_6" d="M17.8202 27.2448C14.5027 27.2448 11.8772 25.6122 10.4279 23.8702C10.282 23.6963 10.2479 23.458 10.341 23.2519C10.4341 23.0426 10.6327 22.9041 10.853 22.9041C10.9523 22.9041 11.0485 22.9331 11.1385 22.9846C12.6313 23.8766 15.1358 24.9843 17.814 24.9843L17.8575 24.9843C20.5358 24.9843 23.0402 23.8798 24.533 22.9846C24.623 22.9331 24.7192 22.9041 24.8185 22.9041C25.0357 22.9041 25.2375 23.0426 25.3306 23.2519C25.3745 23.3528 25.3897 23.4647 25.3743 23.5742C25.3589 23.6838 25.3136 23.7865 25.2437 23.8702C23.7944 25.6154 21.1689 27.2448 17.8513 27.2448" fill="#422B0D"/>
<path id="Vector_7" d="M3.13757 28.7002C1.48344 25.931 0.620682 22.6336 0.620683 18.966C0.620683 13.5242 2.51378 8.91951 6.08274 5.63508C9.37238 2.64045 13.8413 0.966026 18.6206 0.966027C24.2254 0.966027 30.1158 3.33276 33.573 8.35279C30.2337 2.66621 23.9554 1.63253e-05 17.9999 1.58047e-05C13.2206 1.53869e-05 8.75169 1.67443 5.46205 4.66907C1.89309 7.9535 -6.21821e-06 12.5582 -6.69396e-06 18C-7.05259e-06 22.1023 1.07689 25.7474 3.13757 28.7002Z" fill="#EB8F00"/>
</g>
</g>
<defs>
<radialGradient id="paint0_radial_1119_5952" cx="0" cy="0" r="1" gradientUnits="userSpaceOnUse" gradientTransform="translate(18.0001 18) scale(17.6772 18.3413)">
<stop offset="0.5" stop-color="#FDE030"/>
<stop offset="0.919" stop-color="#F7C02B"/>
<stop offset="1" stop-color="#F4A223"/>
</radialGradient>
<clipPath id="clip0_1119_5952">
<rect width="36" height="36" fill="white" transform="translate(36 36) rotate(-180)"/>
</clipPath>
</defs>
</svg>
