<svg width="36" height="36" viewBox="0 0 36 36" fill="none" xmlns="http://www.w3.org/2000/svg">
<g id="bi:emoji-frown" clip-path="url(#clip0_1119_5947)">
<g id="Group">
<path id="Vector" d="M18 33.75C13.8228 33.75 9.81677 32.0906 6.86307 29.1369C3.90937 26.1832 2.25 22.1772 2.25 18C2.25 13.8228 3.90937 9.81677 6.86307 6.86307C9.81677 3.90937 13.8228 2.25 18 2.25C22.1772 2.25 26.1832 3.90937 29.1369 6.86307C32.0906 9.81677 33.75 13.8228 33.75 18C33.75 22.1772 32.0906 26.1832 29.1369 29.1369C26.1832 32.0906 22.1772 33.75 18 33.75ZM18 36C22.7739 36 27.3523 34.1036 30.7279 30.7279C34.1036 27.3523 36 22.7739 36 18C36 13.2261 34.1036 8.64773 30.7279 5.27208C27.3523 1.89642 22.7739 0 18 0C13.2261 0 8.64773 1.89642 5.27208 5.27208C1.89642 8.64773 0 13.2261 0 18C0 22.7739 1.89642 27.3523 5.27208 30.7279C8.64773 34.1036 13.2261 36 18 36Z" fill="#ABB4CF"/>
<path id="Vector_2" d="M9.64126 27.9742C9.89965 28.1234 10.2067 28.1639 10.4949 28.0866C10.7831 28.0094 11.0288 27.8209 11.178 27.5625C11.869 26.3647 12.8634 25.3702 14.061 24.6789C15.2586 23.9877 16.6172 23.6242 18 23.625C20.9138 23.625 23.4585 25.2067 24.822 27.5625C24.9723 27.8188 25.2178 28.0052 25.505 28.0812C25.7922 28.1571 26.0978 28.1164 26.355 27.9678C26.6123 27.8193 26.8004 27.575 26.8782 27.2883C26.9561 27.0016 26.9173 26.6958 26.7705 26.4375C25.882 24.8977 24.6036 23.6191 23.064 22.7304C21.5243 21.8417 19.7778 21.3742 18 21.375C16.2224 21.3747 14.476 21.8423 12.9364 22.731C11.3968 23.6197 10.1183 24.898 9.22952 26.4375C9.08034 26.6959 9.03991 27.003 9.11713 27.2911C9.19435 27.5793 9.38288 27.8251 9.64126 27.9742ZM15.75 14.625C15.75 16.488 14.742 18 13.5 18C12.258 18 11.25 16.488 11.25 14.625C11.25 12.762 12.258 11.25 13.5 11.25C14.742 11.25 15.75 12.762 15.75 14.625ZM24.75 14.625C24.75 16.488 23.742 18 22.5 18C21.258 18 20.25 16.488 20.25 14.625C20.25 12.762 21.258 11.25 22.5 11.25C23.742 11.25 24.75 12.762 24.75 14.625Z" fill="#ABB4CF"/>
</g>
</g>
<defs>
<clipPath id="clip0_1119_5947">
<rect width="36" height="36" fill="white"/>
</clipPath>
</defs>
</svg>
