<svg width="36" height="36" viewBox="0 0 36 36" fill="none" xmlns="http://www.w3.org/2000/svg">
<g id="bi:emoji-laughing" clip-path="url(#clip0_1119_5931)">
<g id="Group">
<path id="Vector" d="M18 33.75C13.8228 33.75 9.81677 32.0906 6.86307 29.1369C3.90937 26.1832 2.25 22.1772 2.25 18C2.25 13.8228 3.90937 9.81677 6.86307 6.86307C9.81677 3.90937 13.8228 2.25 18 2.25C22.1772 2.25 26.1832 3.90937 29.1369 6.86307C32.0906 9.81677 33.75 13.8228 33.75 18C33.75 22.1772 32.0906 26.1832 29.1369 29.1369C26.1832 32.0906 22.1772 33.75 18 33.75ZM18 36C22.7739 36 27.3523 34.1036 30.7279 30.7279C34.1036 27.3523 36 22.7739 36 18C36 13.2261 34.1036 8.64773 30.7279 5.27208C27.3523 1.89642 22.7739 0 18 0C13.2261 0 8.64773 1.89642 5.27208 5.27208C1.89642 8.64773 0 13.2261 0 18C0 22.7739 1.89642 27.3523 5.27208 30.7279C8.64773 34.1036 13.2261 36 18 36Z" fill="#ABB4CF"/>
<path id="Vector_2" d="M27.7448 21.375C27.9422 21.717 28.0462 22.105 28.0462 22.5C28.0462 22.895 27.9422 23.283 27.7448 23.625C26.7575 25.3358 25.3371 26.7564 23.6265 27.7439C21.9158 28.7313 19.9752 29.2508 18 29.25C16.0252 29.2504 14.0851 28.7308 12.3748 27.7433C10.6646 26.7559 9.24452 25.3355 8.2575 23.625C8.06012 23.2831 7.95616 22.8953 7.95605 22.5006C7.95595 22.1058 8.05972 21.718 8.25692 21.376C8.45413 21.034 8.73784 20.75 9.07956 20.5523C9.42128 20.3547 9.80899 20.2504 10.2037 20.25H25.7963C26.1912 20.25 26.5792 20.354 26.9212 20.5515C27.2633 20.7489 27.5473 21.033 27.7448 21.375ZM15.75 14.625C15.75 16.488 14.742 14.625 13.5 14.625C12.258 14.625 11.25 16.488 11.25 14.625C11.25 12.762 12.258 11.25 13.5 11.25C14.742 11.25 15.75 12.762 15.75 14.625ZM24.75 14.625C24.75 16.488 23.742 14.625 22.5 14.625C21.258 14.625 20.25 16.488 20.25 14.625C20.25 12.762 21.258 11.25 22.5 11.25C23.742 11.25 24.75 12.762 24.75 14.625Z" fill="#ABB4CF"/>
</g>
</g>
<defs>
<clipPath id="clip0_1119_5931">
<rect width="36" height="36" fill="white"/>
</clipPath>
</defs>
</svg>
