<svg width="20" height="20" viewBox="0 0 20 20" fill="none" xmlns="http://www.w3.org/2000/svg">
<g id="fluent:guest-20-filled">
<path id="Vector" d="M7.085 4.00002H5.5C5.36739 4.00002 5.24021 4.05269 5.14645 4.14646C5.05268 4.24023 5 4.36741 5 4.50002V16.5C5 16.6326 5.05268 16.7598 5.14645 16.8536C5.24021 16.9473 5.36739 17 5.5 17H14.5C14.6326 17 14.7598 16.9473 14.8536 16.8536C14.9473 16.7598 15 16.6326 15 16.5V4.50002C15 4.36741 14.9473 4.24023 14.8536 4.14646C14.7598 4.05269 14.6326 4.00002 14.5 4.00002H12.915C12.8116 4.29259 12.6199 4.54589 12.3665 4.72499C12.1131 4.90409 11.8103 5.00018 11.5 5.00002H8.5C8.18967 5.00018 7.88694 4.90409 7.63351 4.72499C7.38008 4.54589 7.18844 4.29259 7.085 4.00002ZM12.915 3.00002H14.5C14.8978 3.00002 15.2794 3.15805 15.5607 3.43936C15.842 3.72066 16 4.10219 16 4.50002V16.5C16 16.8978 15.842 17.2794 15.5607 17.5607C15.2794 17.842 14.8978 18 14.5 18H5.5C5.10218 18 4.72064 17.842 4.43934 17.5607C4.15804 17.2794 4 16.8978 4 16.5V4.50002C4 4.10219 4.15804 3.72066 4.43934 3.43936C4.72064 3.15805 5.10218 3.00002 5.5 3.00002H7.085C7.18844 2.70744 7.38008 2.45414 7.63351 2.27504C7.88694 2.09594 8.18967 1.99985 8.5 2.00002H11.5C11.8103 1.99985 12.1131 2.09594 12.3665 2.27504C12.6199 2.45414 12.8116 2.70744 12.915 3.00002ZM8 3.50002C8 3.63262 8.05268 3.7598 8.14645 3.85357C8.24021 3.94734 8.36739 4.00002 8.5 4.00002H11.5C11.6326 4.00002 11.7598 3.94734 11.8536 3.85357C11.9473 3.7598 12 3.63262 12 3.50002C12 3.36741 11.9473 3.24023 11.8536 3.14646C11.7598 3.05269 11.6326 3.00002 11.5 3.00002H8.5C8.36739 3.00002 8.24021 3.05269 8.14645 3.14646C8.05268 3.24023 8 3.36741 8 3.50002ZM10 6.00002C9.46957 6.00002 8.96086 6.21073 8.58579 6.5858C8.21071 6.96087 8 7.46958 8 8.00002C8 8.53045 8.21071 9.03916 8.58579 9.41423C8.96086 9.7893 9.46957 10 10 10C10.5304 10 11.0391 9.7893 11.4142 9.41423C11.7893 9.03916 12 8.53045 12 8.00002C12 7.46958 11.7893 6.96087 11.4142 6.5858C11.0391 6.21073 10.5304 6.00002 10 6.00002ZM7.75 11C7.086 11 6.452 11.55 6.532 12.302C6.592 12.862 6.767 13.556 7.316 14.108C7.873 14.666 8.734 15 10 15C11.266 15 12.127 14.666 12.684 14.108C13.234 13.556 13.409 12.861 13.468 12.302C13.548 11.55 12.915 11 12.25 11H7.75Z" fill="#4683C4"/>
</g>
</svg>
