<svg width="20" height="20" viewBox="0 0 20 20" fill="none" xmlns="http://www.w3.org/2000/svg">
<g id="ep:setting">
<path id="Vector" d="M11.6254 2.00002C11.7495 2.00002 11.8704 2.03842 11.9707 2.10969C12.0711 2.18095 12.1456 2.28141 12.1836 2.39659L12.8285 4.34973C13.0994 4.47887 13.3586 4.62402 13.606 4.78744L15.6653 4.35544C15.7867 4.33018 15.9132 4.34313 16.0266 4.39242C16.14 4.44171 16.2344 4.52481 16.2962 4.62973L17.9216 7.37144C17.9836 7.47631 18.0099 7.59767 17.9966 7.71804C17.9834 7.8384 17.9312 7.95155 17.8477 8.04116L16.4346 9.56116C16.4552 9.85262 16.4552 10.1451 16.4346 10.4366L17.8477 11.9589C17.9312 12.0485 17.9834 12.1616 17.9966 12.282C18.0099 12.4024 17.9836 12.5237 17.9216 12.6286L16.2962 15.3714C16.2342 15.4762 16.1397 15.559 16.0264 15.6081C15.913 15.6572 15.7866 15.67 15.6653 15.6446L13.606 15.2126C13.3598 15.3749 13.0994 15.5212 12.8297 15.6503L12.1836 17.6034C12.1456 17.7186 12.0711 17.8191 11.9707 17.8903C11.8704 17.9616 11.7495 18 11.6254 18H8.37464C8.2505 18 8.12957 17.9616 8.02926 17.8903C7.92894 17.8191 7.85443 17.7186 7.81644 17.6034L7.17263 15.6514C6.90246 15.5227 6.64188 15.3757 6.39279 15.2114L4.3347 15.6446C4.21329 15.6699 4.08678 15.6569 3.9734 15.6076C3.86002 15.5583 3.76562 15.4752 3.70379 15.3703L2.07844 12.6286C2.01637 12.5237 1.99008 12.4024 2.00336 12.282C2.01664 12.1616 2.0688 12.0485 2.15232 11.9589L3.56542 10.4366C3.54495 10.1459 3.54495 9.85415 3.56542 9.56344L2.15232 8.04116C2.0688 7.95155 2.01664 7.8384 2.00336 7.71804C1.99008 7.59767 2.01637 7.47631 2.07844 7.37144L3.70379 4.62859C3.76579 4.52387 3.86026 4.44101 3.97363 4.39193C4.087 4.34285 4.21341 4.33008 4.3347 4.35544L6.39279 4.78859C6.6414 4.62516 6.90174 4.47773 7.17263 4.34859L7.81761 2.39659C7.85548 2.28178 7.92964 2.18159 8.02948 2.11036C8.12932 2.03913 8.24973 2.0005 8.37347 2.00002H11.6242H11.6254ZM11.1962 3.14287H8.80385L8.13776 5.1623L7.68862 5.37602C7.46782 5.48132 7.25467 5.60121 7.05067 5.73487L6.63553 6.00916L4.50592 5.56116L3.30977 7.58173L4.76977 9.15659L4.73459 9.64116C4.71774 9.88011 4.71774 10.1199 4.73459 10.3589L4.76977 10.8434L3.30742 12.4183L4.50475 14.4389L6.63436 13.992L7.0495 14.2652C7.2535 14.3988 7.46664 14.5187 7.68744 14.624L8.13659 14.8377L8.80385 16.8572H11.1985L11.8669 14.8366L12.3149 14.624C12.5355 14.519 12.7482 14.3991 12.9517 14.2652L13.3656 13.992L15.4964 14.4389L16.6926 12.4183L15.2314 10.8434L15.2666 10.3589C15.2835 10.1195 15.2835 9.87935 15.2666 9.64002L15.2314 9.15544L16.6938 7.58173L15.4964 5.56116L13.3656 6.00687L12.9517 5.73487C12.7483 5.60095 12.5355 5.48103 12.3149 5.37602L11.8669 5.16344L11.1973 3.14287H11.1962ZM10 6.57144C10.9331 6.57144 11.8279 6.93267 12.4877 7.57565C13.1474 8.21863 13.5181 9.0907 13.5181 10C13.5181 10.9093 13.1474 11.7814 12.4877 12.4244C11.8279 13.0674 10.9331 13.4286 10 13.4286C9.06695 13.4286 8.17211 13.0674 7.51234 12.4244C6.85257 11.7814 6.48191 10.9093 6.48191 10C6.48191 9.0907 6.85257 8.21863 7.51234 7.57565C8.17211 6.93267 9.06695 6.57144 10 6.57144ZM10 7.7143C9.37796 7.7143 8.7814 7.95512 8.34156 8.38377C7.90171 8.81243 7.65461 9.39381 7.65461 10C7.65461 10.6062 7.90171 11.1876 8.34156 11.6163C8.7814 12.0449 9.37796 12.2857 10 12.2857C10.622 12.2857 11.2186 12.0449 11.6584 11.6163C12.0983 11.1876 12.3454 10.6062 12.3454 10C12.3454 9.39381 12.0983 8.81243 11.6584 8.38377C11.2186 7.95512 10.622 7.7143 10 7.7143Z" fill="#4683C4"/>
</g>
</svg>
