<svg width="464" height="419" viewBox="0 0 464 419" fill="none" xmlns="http://www.w3.org/2000/svg">
<g clip-path="url(#clip0_666_4402)">
<path d="M268.135 117.013L264.66 111.086L245.664 122.257L249.123 128.184L238.253 147.363L231.397 147.426L231.556 169.481L238.411 169.434L249.568 188.454L246.188 194.428L265.342 205.329L268.739 199.354L290.766 199.195L294.241 205.106L313.237 193.936L309.778 188.025L320.648 168.83L327.504 168.782L327.346 146.711L320.49 146.775L309.333 127.739L312.714 121.78L293.559 110.88L290.163 116.854L268.135 117.013Z" fill="white" stroke="#4683C4" stroke-width="0.62" stroke-linecap="round" stroke-linejoin="round"/>
<path d="M279.324 140.451C282.812 140.416 286.233 141.419 289.153 143.332C292.072 145.245 294.359 147.982 295.724 151.198C297.089 154.413 297.47 157.961 296.82 161.393C296.17 164.826 294.517 167.988 292.071 170.479C289.625 172.97 286.496 174.679 283.08 175.389C279.663 176.099 276.113 175.777 272.879 174.466C269.645 173.155 266.873 170.912 264.912 168.022C262.952 165.132 261.892 161.725 261.867 158.231C261.837 153.559 263.657 149.065 266.929 145.732C270.2 142.4 274.657 140.501 279.324 140.451Z" fill="white" stroke="#4683C4" stroke-width="0.62" stroke-linecap="round" stroke-linejoin="round"/>
<path d="M51.291 47.908C51.291 47.908 8.17288 85.6464 55.9567 133.602" stroke="#4683C4" stroke-width="0.62" stroke-linecap="round" stroke-linejoin="round" stroke-dasharray="6.22 3.11"/>
<path d="M13.4894 257.638C7.26843 268.253 -6.10977 278.422 3.47557 293.168C10.0933 303.354 23.3762 306.96 18.2027 321.404C16.1555 327.141 12.2357 331.463 13.4418 337.914C14.4733 343.507 18.8534 347.94 22.7097 351.802C26.0424 355.123 31.3587 358.253 33.8185 362.321C37.8495 368.947 33.7392 373.92 31.819 380.515C30.0098 386.775 29.7241 393.719 33.1996 399.583C37.786 407.337 46.7683 408.115 52.7036 413.788C52.7036 413.788 79.9043 431.601 91.0608 398.725C93.6952 390.954 97.5991 383.836 95.7106 375.017C94.2823 368.359 89.3627 363.465 83.7607 360.112C77.8889 356.585 71.4934 355.727 69.9381 348.131C68.9859 343.475 70.7633 337.548 70.9379 332.861C71.1601 327.395 71.3664 321.166 68.3035 316.351C64.7963 310.822 58.988 310.329 53.5923 307.517C39.976 300.446 47.2444 288.751 45.213 276.786C42.2295 259.45 25.5028 261.102 13.7433 257.559L13.4894 257.638Z" fill="#C9E2FD" stroke="#C9E2FD" stroke-width="0.16" stroke-miterlimit="10"/>
<path d="M24.3284 284.953L76.4288 417.935" stroke="#4683C4" stroke-width="0.62" stroke-linecap="round" stroke-linejoin="round"/>
<path d="M26.5342 330.97L47.1173 343.142" stroke="#4683C4" stroke-width="0.62" stroke-linecap="round" stroke-linejoin="round"/>
<path d="M66.7166 393.163L77.8571 374.763" stroke="#4683C4" stroke-width="0.62" stroke-linecap="round" stroke-linejoin="round"/>
<path d="M40.2456 325.583L45.7048 308.867" stroke="#4683C4" stroke-width="0.62" stroke-linecap="round" stroke-linejoin="round"/>
<path d="M58.8132 254.985H163.823V192.585L58.8132 208.3V254.985Z" fill="#4683C4"/>
<path d="M57.2898 418.603L73.6833 401.712H87.5376V418.603H57.2898Z" fill="#4683C4"/>
<path d="M147.478 418.603L136.861 401.712H123.022V418.603H147.478Z" fill="#4683C4"/>
<path d="M155.587 254.667V406.193H113.104V285.319H107.565L99.789 406.193H57.2898L65.0818 285.319L67.0656 254.667H155.587Z" fill="white" stroke="#4683C4" stroke-width="0.62" stroke-linecap="round" stroke-linejoin="round"/>
<path d="M175.821 179.794C175.821 144.757 149.017 129.137 114.04 128.295H111.882C59.2577 128.295 42.658 166.589 40.1664 173.2C34.612 187.914 18.9962 234.042 69.3192 255.382C84.4589 261.817 95.2662 246.245 103.36 242.066C109.579 238.702 115.979 235.684 122.53 233.025L175.821 179.794Z" fill="#4683C4"/>
<path d="M152.508 197.241C152.508 197.241 158.126 222.871 189.501 217.342C220.875 211.812 211.718 163.491 211.718 163.491H187.438L186.549 185.737C186.549 185.737 173.599 152.304 157.539 140.864C147.7 133.872 152.508 197.241 152.508 197.241Z" fill="#4683C4"/>
<path d="M163.458 187.199V213.782" stroke="white" stroke-width="0.62" stroke-linecap="round" stroke-linejoin="round"/>
<path d="M90.7434 249.646L99.567 258.544L106.677 266.966L103.693 269.969L106.327 273.433L91.5686 284.905L72.4138 261.849L90.7434 249.646Z" fill="white" stroke="#4683C4" stroke-width="0.62" stroke-linecap="round" stroke-linejoin="round"/>
<path d="M103.249 275.642L96.9165 268.412" stroke="#4683C4" stroke-width="0.62" stroke-linecap="round" stroke-linejoin="round"/>
<path d="M99.1067 278.502L92.7588 271.256" stroke="#4683C4" stroke-width="0.62" stroke-linecap="round" stroke-linejoin="round"/>
<path d="M95.1868 281.632L88.8547 274.386" stroke="#4683C4" stroke-width="0.62" stroke-linecap="round" stroke-linejoin="round"/>
<path d="M103.772 270.112L99.1067 264.709" stroke="#4683C4" stroke-width="0.62" stroke-linecap="round" stroke-linejoin="round"/>
<path d="M67.0974 188.533C53.7827 216.992 94.5997 248.327 94.5997 248.327L70.1761 266.568C70.1761 266.568 37.3575 238.761 35.6594 219.932" fill="#4683C4"/>
<path d="M108.93 112.691C108.93 112.691 93.3777 116.727 92.4573 97.7863C91.5368 78.8455 121.864 72.0447 128.958 79.9578C136.052 87.871 108.93 112.691 108.93 112.691Z" fill="#4683C4"/>
<path d="M110.39 138.56C111.647 138.56 112.892 138.311 114.052 137.826C115.213 137.342 116.266 136.633 117.151 135.739C118.036 134.845 118.736 133.785 119.21 132.619C119.684 131.453 119.922 130.205 119.912 128.946V97.7386H100.789V128.946C100.789 131.496 101.8 133.941 103.601 135.744C105.402 137.547 107.844 138.56 110.39 138.56Z" fill="white" stroke="#4683C4" stroke-width="0.62" stroke-linecap="round" stroke-linejoin="round"/>
<path d="M94.0601 99.3117C93.9505 100.721 94.4035 102.116 95.3197 103.191C96.236 104.267 97.5408 104.934 98.9479 105.048C99.3852 105.104 99.8278 105.104 100.265 105.048C100.477 106.971 101.076 108.83 102.027 110.514C103.549 113.231 105.915 115.376 108.767 116.622C111.618 117.869 114.797 118.15 117.822 117.421C120.847 116.693 123.552 114.996 125.525 112.587C127.499 110.179 128.632 107.191 128.755 104.079C128.877 100.966 127.981 97.8984 126.202 95.3423C124.424 92.7863 121.861 90.8816 118.902 89.9177C115.944 88.9538 112.752 88.9835 109.812 90.0022C106.872 91.0209 104.344 92.973 102.614 95.5617C101.853 94.979 100.949 94.6124 99.9972 94.5005C99.0456 94.3886 98.0814 94.5355 97.2062 94.9257C96.3309 95.3159 95.5767 95.9351 95.0231 96.7181C94.4695 97.5011 94.1368 98.419 94.0601 99.3753V99.3117Z" fill="white" stroke="#4683C4" stroke-width="0.62" stroke-linecap="round" stroke-linejoin="round"/>
<path d="M101.963 102.013C101.982 101.666 101.927 101.32 101.802 100.996C101.676 100.673 101.483 100.38 101.235 100.138C100.987 99.8957 100.69 99.7093 100.364 99.5914C100.038 99.4736 99.6902 99.427 99.3447 99.4547" stroke="#4683C4" stroke-width="0.62" stroke-linecap="round" stroke-linejoin="round"/>
<path d="M404.409 162.299H137.75V418.603H404.409V162.299Z" fill="#C9E2FD"/>
<path d="M191.262 153.004L191.421 167.924L210.084 167.829L210.465 153.147L191.262 153.004Z" fill="white" stroke="#4683C4" stroke-width="0.62" stroke-linecap="round" stroke-linejoin="round"/>
<path d="M195.182 167.67L195.436 158.041" stroke="#4683C4" stroke-width="0.62" stroke-linecap="round" stroke-linejoin="round"/>
<path d="M200.197 167.193L200.451 157.58" stroke="#4683C4" stroke-width="0.62" stroke-linecap="round" stroke-linejoin="round"/>
<path d="M205.196 167.098L205.45 157.469" stroke="#4683C4" stroke-width="0.62" stroke-linecap="round" stroke-linejoin="round"/>
<path d="M67.0973 188.533C53.7825 216.992 94.5996 248.327 94.5996 248.327" stroke="white" stroke-width="0.62" stroke-linecap="round" stroke-linejoin="round"/>
<path d="M368.686 210.986H173.933V240.97H368.686V210.986Z" fill="white"/>
<path d="M368.686 253.555H173.933V283.539H368.686V253.555Z" fill="white"/>
<path d="M368.686 297.443H173.933V327.427H368.686V297.443Z" fill="white"/>
<path d="M329.932 348.719H212.687V378.703H329.932V348.719Z" fill="#4683C4"/>
<path d="M364.036 143.613C384.721 143.613 401.489 126.823 401.489 106.113C401.489 85.4018 384.721 68.6125 364.036 68.6125C343.352 68.6125 326.584 85.4018 326.584 106.113C326.584 126.823 343.352 143.613 364.036 143.613Z" fill="white" stroke="#4683C4" stroke-width="0.62" stroke-linecap="round" stroke-linejoin="round" stroke-dasharray="6.22 3.11"/>
<path d="M22.2971 418.507H463.508" stroke="#4683C4" stroke-width="0.62" stroke-linecap="round" stroke-linejoin="round"/>
<path d="M424.643 418.507H359.323L350.436 345.668H433.514L424.643 418.507Z" fill="#4683C4"/>
<path d="M439.053 345.668H344.913V362.273H439.053V345.668Z" fill="white" stroke="#4683C4" stroke-width="0.62" stroke-linecap="round" stroke-linejoin="round"/>
<path d="M391.983 345.668V271.447" stroke="#4683C4" stroke-width="0.62" stroke-linecap="round" stroke-linejoin="round"/>
<path d="M391.983 306.468C414.824 306.468 433.34 287.928 433.34 265.059C433.34 242.189 414.824 223.65 391.983 223.65C369.142 223.65 350.626 242.189 350.626 265.059C350.626 287.928 369.142 306.468 391.983 306.468Z" fill="white" stroke="#4683C4" stroke-width="0.62" stroke-linecap="round" stroke-linejoin="round"/>
<path d="M415.486 288.583C428.463 275.589 428.463 254.522 415.486 241.528C402.508 228.533 381.467 228.533 368.49 241.528C355.512 254.522 355.512 275.589 368.49 288.583C381.467 301.577 402.508 301.577 415.486 288.583Z" fill="white" stroke="#4683C4" stroke-width="0.62" stroke-linecap="round" stroke-linejoin="round"/>
<path d="M391.983 345.493C391.983 345.493 391.983 313.92 359.99 310.011C357.323 336.309 391.983 345.493 391.983 345.493Z" fill="#4683C4"/>
<path d="M366.766 318.783L384.413 336.023" stroke="white" stroke-width="0.62" stroke-linecap="round" stroke-linejoin="round"/>
<path d="M392.126 345.843C392.126 345.843 392.126 314.27 424.104 310.361C426.77 336.706 392.126 345.843 392.126 345.843Z" fill="#4683C4"/>
<path d="M417.343 319.132L399.696 336.389" stroke="white" stroke-width="0.62" stroke-linecap="round" stroke-linejoin="round"/>
<path d="M378.605 260.34V269.572C378.605 273.196 380.043 276.672 382.602 279.234C385.162 281.797 388.633 283.237 392.253 283.237C395.872 283.237 399.344 281.797 401.903 279.234C404.463 276.672 405.901 273.196 405.901 269.572V260.371L378.605 260.34ZM393.871 274.339H390.586V267.379H393.871V274.339Z" fill="#4683C4"/>
<path d="M400.759 257.702V255.922C400.759 253.659 399.861 251.489 398.263 249.889C396.665 248.288 394.497 247.389 392.237 247.389C389.979 247.394 387.816 248.294 386.221 249.894C384.626 251.494 383.731 253.662 383.731 255.922V257.702" stroke="#4683C4" stroke-width="2" stroke-miterlimit="10"/>
<path d="M420.438 216.738C420.438 216.738 447.924 167.098 398.839 139.434" stroke="#4683C4" stroke-width="0.62" stroke-linecap="round" stroke-linejoin="round" stroke-dasharray="6.22 3.11"/>
<path d="M248.044 114.566L246.457 102.712L242.776 103.205L235.523 93.6708L236.951 90.2386L225.969 85.6941L224.541 89.1263L212.702 90.7153L210.449 87.7756L200.927 95.0373L203.18 97.9928L198.594 109.02L194.928 109.497L196.515 121.351L200.197 120.874L207.449 130.408L206.021 133.84L217.13 138.433L218.558 135L230.397 133.411L232.651 136.351L242.173 129.089L239.919 126.134L244.505 115.106L248.044 114.566ZM222.796 121.494C220.929 121.732 219.035 121.411 217.35 120.572C215.666 119.733 214.268 118.413 213.332 116.779C212.397 115.145 211.965 113.27 212.093 111.391C212.22 109.511 212.9 107.712 214.048 106.22C215.196 104.727 216.759 103.609 218.541 103.005C220.323 102.402 222.244 102.34 224.061 102.828C225.878 103.317 227.51 104.333 228.75 105.749C229.991 107.165 230.785 108.917 231.032 110.784C231.197 112.029 231.114 113.295 230.789 114.508C230.464 115.721 229.902 116.858 229.137 117.853C228.372 118.848 227.417 119.682 226.329 120.307C225.241 120.932 224.04 121.335 222.796 121.494Z" fill="#4683C4"/>
<path d="M232.349 0.492584H66.7166V47.908H232.349V0.492584Z" fill="white" stroke="#4683C4" stroke-width="0.62" stroke-linecap="round" stroke-linejoin="round" stroke-dasharray="6.22 3.11"/>
<path d="M91.5684 31.5096C95.6001 31.5096 98.8685 28.2371 98.8685 24.2003C98.8685 20.1634 95.6001 16.8909 91.5684 16.8909C87.5367 16.8909 84.2683 20.1634 84.2683 24.2003C84.2683 28.2371 87.5367 31.5096 91.5684 31.5096Z" fill="#C9E2FD"/>
<path d="M114.643 31.5096C118.675 31.5096 121.943 28.2371 121.943 24.2003C121.943 20.1634 118.675 16.8909 114.643 16.8909C110.611 16.8909 107.343 20.1634 107.343 24.2003C107.343 28.2371 110.611 31.5096 114.643 31.5096Z" fill="#C9E2FD"/>
<path d="M137.718 31.5096C141.75 31.5096 145.018 28.2371 145.018 24.2003C145.018 20.1634 141.75 16.8909 137.718 16.8909C133.686 16.8909 130.418 20.1634 130.418 24.2003C130.418 28.2371 133.686 31.5096 137.718 31.5096Z" fill="#C9E2FD"/>
<path d="M160.792 31.5096C164.824 31.5096 168.092 28.2371 168.092 24.2003C168.092 20.1634 164.824 16.8909 160.792 16.8909C156.761 16.8909 153.492 20.1634 153.492 24.2003C153.492 28.2371 156.761 31.5096 160.792 31.5096Z" fill="#C9E2FD"/>
<path d="M183.883 31.5096C187.915 31.5096 191.183 28.2371 191.183 24.2003C191.183 20.1634 187.915 16.8909 183.883 16.8909C179.851 16.8909 176.583 20.1634 176.583 24.2003C176.583 28.2371 179.851 31.5096 183.883 31.5096Z" fill="#C9E2FD"/>
<path d="M214.242 24.2003C214.248 25.6466 213.826 27.0623 213.028 28.2681C212.23 29.4739 211.093 30.4157 209.761 30.9743C208.429 31.5329 206.961 31.6831 205.543 31.4059C204.125 31.1288 202.821 30.4367 201.797 29.4174C200.772 28.398 200.072 27.0972 199.786 25.6795C199.5 24.2618 199.641 22.791 200.19 21.4533C200.739 20.1155 201.672 18.971 202.871 18.1645C204.07 17.358 205.481 16.9259 206.926 16.9227C208.859 16.9185 210.715 17.6824 212.087 19.0467C213.458 20.4111 214.233 22.2645 214.242 24.2003Z" fill="#C9E2FD"/>
<path d="M375.605 106.732C374.311 108.027 372.662 108.908 370.868 109.264C369.074 109.621 367.214 109.437 365.524 108.735C363.834 108.034 362.39 106.846 361.374 105.323C360.358 103.8 359.815 102.009 359.815 100.178C359.815 98.346 360.358 96.5554 361.374 95.0322C362.39 93.509 363.834 92.3217 365.524 91.6202C367.214 90.9187 369.074 90.7346 370.868 91.0911C372.662 91.4476 374.311 92.3287 375.605 93.6231C376.466 94.4835 377.148 95.5052 377.614 96.6299C378.08 97.7546 378.319 98.9602 378.319 100.178C378.319 101.395 378.08 102.601 377.614 103.725C377.148 104.85 376.466 105.872 375.605 106.732Z" fill="#4683C4"/>
<path d="M369.067 100.17L352.959 116.282L358.006 121.319" stroke="#4683C4" stroke-width="3" stroke-miterlimit="10"/>
<path d="M361.196 115.456L357.498 111.753" stroke="#4683C4" stroke-width="3" stroke-miterlimit="10"/>
<path d="M372.542 103.666C371.854 104.353 370.977 104.821 370.023 105.01C369.069 105.199 368.081 105.101 367.183 104.727C366.285 104.354 365.517 103.723 364.977 102.913C364.437 102.103 364.149 101.151 364.149 100.178C364.149 99.204 364.437 98.2522 364.977 97.4424C365.517 96.6326 366.285 96.0013 367.183 95.6281C368.081 95.2549 369.069 95.1565 370.023 95.3455C370.977 95.5345 371.854 96.0023 372.542 96.6899C373.464 97.6161 373.982 98.8702 373.982 100.178C373.982 101.485 373.464 102.739 372.542 103.666Z" fill="white"/>
</g>
<defs>
<clipPath id="clip0_666_4402">
<rect width="464" height="419" fill="white"/>
</clipPath>
</defs>
</svg>
